<?xml version="1.0" encoding="UTF-8"?>
<svg xmlns="http://www.w3.org/2000/svg" xmlns:xlink="http://www.w3.org/1999/xlink" width="375.12pt" height="238.08pt" viewBox="0 0 375.12 238.08" version="1.1">
<defs>
<clipPath id="clip1">
  <path d="M 310.851562 68.847656 L 354.78125 68.847656 L 354.78125 112.777344 L 310.851562 112.777344 Z M 310.851562 68.847656 "/>
</clipPath>
<clipPath id="clip2">
  <path d="M 352.578125 68.847656 L 313.058594 68.847656 C 311.839844 68.847656 310.851562 69.753906 310.851562 70.867188 L 310.851562 110.753906 C 310.851562 111.871094 311.839844 112.777344 313.058594 112.777344 L 352.578125 112.777344 C 353.796875 112.777344 354.785156 111.871094 354.785156 110.753906 L 354.785156 70.867188 C 354.78125 69.753906 353.796875 68.847656 352.578125 68.847656 Z M 352.578125 68.847656 "/>
</clipPath>
<linearGradient id="linear0" gradientUnits="userSpaceOnUse" x1="-0.00000661857" y1="9" x2="17.999993" y2="9" gradientTransform="matrix(2.440438,0,0,2.440438,310.85306,68.84785)">
<stop offset="0" style="stop-color:rgb(36.898804%,62.69989%,93.699646%);stop-opacity:1;"/>
<stop offset="0.015625" style="stop-color:rgb(37.011719%,62.776184%,93.730164%);stop-opacity:1;"/>
<stop offset="0.03125" style="stop-color:rgb(37.239075%,62.928772%,93.791199%);stop-opacity:1;"/>
<stop offset="0.046875" style="stop-color:rgb(37.464905%,63.08136%,93.852234%);stop-opacity:1;"/>
<stop offset="0.0625" style="stop-color:rgb(37.692261%,63.235474%,93.911743%);stop-opacity:1;"/>
<stop offset="0.078125" style="stop-color:rgb(37.918091%,63.388062%,93.972778%);stop-opacity:1;"/>
<stop offset="0.09375" style="stop-color:rgb(38.145447%,63.540649%,94.033813%);stop-opacity:1;"/>
<stop offset="0.109375" style="stop-color:rgb(38.371277%,63.694763%,94.094849%);stop-opacity:1;"/>
<stop offset="0.125" style="stop-color:rgb(38.598633%,63.847351%,94.155884%);stop-opacity:1;"/>
<stop offset="0.140625" style="stop-color:rgb(38.824463%,63.999939%,94.216919%);stop-opacity:1;"/>
<stop offset="0.15625" style="stop-color:rgb(39.051819%,64.154053%,94.277954%);stop-opacity:1;"/>
<stop offset="0.171875" style="stop-color:rgb(39.277649%,64.306641%,94.338989%);stop-opacity:1;"/>
<stop offset="0.1875" style="stop-color:rgb(39.505005%,64.459229%,94.400024%);stop-opacity:1;"/>
<stop offset="0.203125" style="stop-color:rgb(39.730835%,64.613342%,94.46106%);stop-opacity:1;"/>
<stop offset="0.21875" style="stop-color:rgb(39.958191%,64.76593%,94.522095%);stop-opacity:1;"/>
<stop offset="0.234375" style="stop-color:rgb(40.184021%,64.918518%,94.58313%);stop-opacity:1;"/>
<stop offset="0.25" style="stop-color:rgb(40.409851%,65.072632%,94.644165%);stop-opacity:1;"/>
<stop offset="0.265625" style="stop-color:rgb(40.637207%,65.22522%,94.7052%);stop-opacity:1;"/>
<stop offset="0.28125" style="stop-color:rgb(40.863037%,65.379333%,94.766235%);stop-opacity:1;"/>
<stop offset="0.296875" style="stop-color:rgb(41.090393%,65.531921%,94.827271%);stop-opacity:1;"/>
<stop offset="0.3125" style="stop-color:rgb(41.316223%,65.684509%,94.88678%);stop-opacity:1;"/>
<stop offset="0.328125" style="stop-color:rgb(41.543579%,65.838623%,94.947815%);stop-opacity:1;"/>
<stop offset="0.34375" style="stop-color:rgb(41.769409%,65.991211%,95.00885%);stop-opacity:1;"/>
<stop offset="0.359375" style="stop-color:rgb(41.996765%,66.143799%,95.069885%);stop-opacity:1;"/>
<stop offset="0.375" style="stop-color:rgb(42.222595%,66.297913%,95.13092%);stop-opacity:1;"/>
<stop offset="0.390625" style="stop-color:rgb(42.449951%,66.4505%,95.191956%);stop-opacity:1;"/>
<stop offset="0.40625" style="stop-color:rgb(42.675781%,66.603088%,95.252991%);stop-opacity:1;"/>
<stop offset="0.421875" style="stop-color:rgb(42.903137%,66.757202%,95.314026%);stop-opacity:1;"/>
<stop offset="0.4375" style="stop-color:rgb(43.128967%,66.90979%,95.375061%);stop-opacity:1;"/>
<stop offset="0.453125" style="stop-color:rgb(43.356323%,67.062378%,95.436096%);stop-opacity:1;"/>
<stop offset="0.46875" style="stop-color:rgb(43.582153%,67.216492%,95.497131%);stop-opacity:1;"/>
<stop offset="0.484375" style="stop-color:rgb(43.809509%,67.36908%,95.558167%);stop-opacity:1;"/>
<stop offset="0.5" style="stop-color:rgb(44.035339%,67.521667%,95.619202%);stop-opacity:1;"/>
<stop offset="0.515625" style="stop-color:rgb(44.262695%,67.675781%,95.680237%);stop-opacity:1;"/>
<stop offset="0.53125" style="stop-color:rgb(44.488525%,67.828369%,95.741272%);stop-opacity:1;"/>
<stop offset="0.546875" style="stop-color:rgb(44.715881%,67.982483%,95.800781%);stop-opacity:1;"/>
<stop offset="0.5625" style="stop-color:rgb(44.941711%,68.135071%,95.861816%);stop-opacity:1;"/>
<stop offset="0.578125" style="stop-color:rgb(45.169067%,68.287659%,95.922852%);stop-opacity:1;"/>
<stop offset="0.59375" style="stop-color:rgb(45.394897%,68.441772%,95.983887%);stop-opacity:1;"/>
<stop offset="0.609375" style="stop-color:rgb(45.622253%,68.59436%,96.044922%);stop-opacity:1;"/>
<stop offset="0.625" style="stop-color:rgb(45.848083%,68.746948%,96.105957%);stop-opacity:1;"/>
<stop offset="0.640625" style="stop-color:rgb(46.073914%,68.901062%,96.166992%);stop-opacity:1;"/>
<stop offset="0.65625" style="stop-color:rgb(46.30127%,69.05365%,96.228027%);stop-opacity:1;"/>
<stop offset="0.671875" style="stop-color:rgb(46.5271%,69.206238%,96.289062%);stop-opacity:1;"/>
<stop offset="0.6875" style="stop-color:rgb(46.754456%,69.360352%,96.350098%);stop-opacity:1;"/>
<stop offset="0.703125" style="stop-color:rgb(46.980286%,69.512939%,96.411133%);stop-opacity:1;"/>
<stop offset="0.71875" style="stop-color:rgb(47.207642%,69.665527%,96.472168%);stop-opacity:1;"/>
<stop offset="0.734375" style="stop-color:rgb(47.433472%,69.819641%,96.533203%);stop-opacity:1;"/>
<stop offset="0.75" style="stop-color:rgb(47.660828%,69.972229%,96.594238%);stop-opacity:1;"/>
<stop offset="0.765625" style="stop-color:rgb(47.886658%,70.124817%,96.655273%);stop-opacity:1;"/>
<stop offset="0.78125" style="stop-color:rgb(48.114014%,70.278931%,96.716309%);stop-opacity:1;"/>
<stop offset="0.796875" style="stop-color:rgb(48.339844%,70.431519%,96.775818%);stop-opacity:1;"/>
<stop offset="0.8125" style="stop-color:rgb(48.5672%,70.585632%,96.836853%);stop-opacity:1;"/>
<stop offset="0.828125" style="stop-color:rgb(48.79303%,70.73822%,96.897888%);stop-opacity:1;"/>
<stop offset="0.84375" style="stop-color:rgb(49.020386%,70.890808%,96.958923%);stop-opacity:1;"/>
<stop offset="0.859375" style="stop-color:rgb(49.246216%,71.044922%,97.019958%);stop-opacity:1;"/>
<stop offset="0.875" style="stop-color:rgb(49.473572%,71.19751%,97.080994%);stop-opacity:1;"/>
<stop offset="0.890625" style="stop-color:rgb(49.699402%,71.350098%,97.142029%);stop-opacity:1;"/>
<stop offset="0.90625" style="stop-color:rgb(49.926758%,71.504211%,97.203064%);stop-opacity:1;"/>
<stop offset="0.921875" style="stop-color:rgb(50.152588%,71.656799%,97.264099%);stop-opacity:1;"/>
<stop offset="0.9375" style="stop-color:rgb(50.379944%,71.809387%,97.325134%);stop-opacity:1;"/>
<stop offset="0.953125" style="stop-color:rgb(50.605774%,71.963501%,97.386169%);stop-opacity:1;"/>
<stop offset="0.96875" style="stop-color:rgb(50.83313%,72.116089%,97.447205%);stop-opacity:1;"/>
<stop offset="0.984375" style="stop-color:rgb(51.05896%,72.268677%,97.50824%);stop-opacity:1;"/>
<stop offset="1" style="stop-color:rgb(51.286316%,72.422791%,97.569275%);stop-opacity:1;"/>
</linearGradient>
<clipPath id="clip3">
  <path d="M 326 74 L 341 74 L 341 90 L 326 90 Z M 326 74 "/>
</clipPath>
<clipPath id="clip4">
  <path d="M 340.40625 88.96875 L 340.40625 75.011719 C 340.40625 74.65625 339.878906 74.367188 339.230469 74.367188 L 327.511719 74.367188 C 326.863281 74.367188 326.335938 74.652344 326.335938 75.011719 L 326.335938 88.96875 C 326.335938 89.324219 326.863281 89.613281 327.511719 89.613281 L 339.230469 89.613281 C 339.878906 89.613281 340.40625 89.324219 340.40625 88.96875 Z M 340.40625 88.96875 "/>
</clipPath>
<linearGradient id="linear1" gradientUnits="userSpaceOnUse" x1="9.227" y1="2.260998" x2="9.227" y2="8.508998" gradientTransform="matrix(2.440438,0,0,2.440438,310.85306,68.84785)">
<stop offset="0" style="stop-color:rgb(36.898804%,62.69989%,93.699646%);stop-opacity:1;"/>
<stop offset="0.015625" style="stop-color:rgb(37.011719%,62.776184%,93.730164%);stop-opacity:1;"/>
<stop offset="0.03125" style="stop-color:rgb(37.239075%,62.928772%,93.791199%);stop-opacity:1;"/>
<stop offset="0.046875" style="stop-color:rgb(37.464905%,63.08136%,93.852234%);stop-opacity:1;"/>
<stop offset="0.0625" style="stop-color:rgb(37.692261%,63.235474%,93.911743%);stop-opacity:1;"/>
<stop offset="0.078125" style="stop-color:rgb(37.918091%,63.388062%,93.972778%);stop-opacity:1;"/>
<stop offset="0.09375" style="stop-color:rgb(38.145447%,63.540649%,94.033813%);stop-opacity:1;"/>
<stop offset="0.109375" style="stop-color:rgb(38.371277%,63.694763%,94.094849%);stop-opacity:1;"/>
<stop offset="0.125" style="stop-color:rgb(38.598633%,63.847351%,94.155884%);stop-opacity:1;"/>
<stop offset="0.140625" style="stop-color:rgb(38.824463%,63.999939%,94.216919%);stop-opacity:1;"/>
<stop offset="0.15625" style="stop-color:rgb(39.051819%,64.154053%,94.277954%);stop-opacity:1;"/>
<stop offset="0.171875" style="stop-color:rgb(39.277649%,64.306641%,94.338989%);stop-opacity:1;"/>
<stop offset="0.1875" style="stop-color:rgb(39.505005%,64.459229%,94.400024%);stop-opacity:1;"/>
<stop offset="0.203125" style="stop-color:rgb(39.730835%,64.613342%,94.46106%);stop-opacity:1;"/>
<stop offset="0.21875" style="stop-color:rgb(39.958191%,64.76593%,94.522095%);stop-opacity:1;"/>
<stop offset="0.234375" style="stop-color:rgb(40.184021%,64.918518%,94.58313%);stop-opacity:1;"/>
<stop offset="0.25" style="stop-color:rgb(40.409851%,65.072632%,94.644165%);stop-opacity:1;"/>
<stop offset="0.265625" style="stop-color:rgb(40.637207%,65.22522%,94.7052%);stop-opacity:1;"/>
<stop offset="0.28125" style="stop-color:rgb(40.863037%,65.379333%,94.766235%);stop-opacity:1;"/>
<stop offset="0.296875" style="stop-color:rgb(41.090393%,65.531921%,94.827271%);stop-opacity:1;"/>
<stop offset="0.3125" style="stop-color:rgb(41.316223%,65.684509%,94.88678%);stop-opacity:1;"/>
<stop offset="0.328125" style="stop-color:rgb(41.543579%,65.838623%,94.947815%);stop-opacity:1;"/>
<stop offset="0.34375" style="stop-color:rgb(41.769409%,65.991211%,95.00885%);stop-opacity:1;"/>
<stop offset="0.359375" style="stop-color:rgb(41.996765%,66.143799%,95.069885%);stop-opacity:1;"/>
<stop offset="0.375" style="stop-color:rgb(42.222595%,66.297913%,95.13092%);stop-opacity:1;"/>
<stop offset="0.390625" style="stop-color:rgb(42.449951%,66.4505%,95.191956%);stop-opacity:1;"/>
<stop offset="0.40625" style="stop-color:rgb(42.675781%,66.603088%,95.252991%);stop-opacity:1;"/>
<stop offset="0.421875" style="stop-color:rgb(42.903137%,66.757202%,95.314026%);stop-opacity:1;"/>
<stop offset="0.4375" style="stop-color:rgb(43.128967%,66.90979%,95.375061%);stop-opacity:1;"/>
<stop offset="0.453125" style="stop-color:rgb(43.356323%,67.062378%,95.436096%);stop-opacity:1;"/>
<stop offset="0.46875" style="stop-color:rgb(43.582153%,67.216492%,95.497131%);stop-opacity:1;"/>
<stop offset="0.484375" style="stop-color:rgb(43.809509%,67.36908%,95.558167%);stop-opacity:1;"/>
<stop offset="0.5" style="stop-color:rgb(44.035339%,67.521667%,95.619202%);stop-opacity:1;"/>
<stop offset="0.515625" style="stop-color:rgb(44.262695%,67.675781%,95.680237%);stop-opacity:1;"/>
<stop offset="0.53125" style="stop-color:rgb(44.488525%,67.828369%,95.741272%);stop-opacity:1;"/>
<stop offset="0.546875" style="stop-color:rgb(44.715881%,67.982483%,95.800781%);stop-opacity:1;"/>
<stop offset="0.5625" style="stop-color:rgb(44.941711%,68.135071%,95.861816%);stop-opacity:1;"/>
<stop offset="0.578125" style="stop-color:rgb(45.169067%,68.287659%,95.922852%);stop-opacity:1;"/>
<stop offset="0.59375" style="stop-color:rgb(45.394897%,68.441772%,95.983887%);stop-opacity:1;"/>
<stop offset="0.609375" style="stop-color:rgb(45.622253%,68.59436%,96.044922%);stop-opacity:1;"/>
<stop offset="0.625" style="stop-color:rgb(45.848083%,68.746948%,96.105957%);stop-opacity:1;"/>
<stop offset="0.640625" style="stop-color:rgb(46.073914%,68.901062%,96.166992%);stop-opacity:1;"/>
<stop offset="0.65625" style="stop-color:rgb(46.30127%,69.05365%,96.228027%);stop-opacity:1;"/>
<stop offset="0.671875" style="stop-color:rgb(46.5271%,69.206238%,96.289062%);stop-opacity:1;"/>
<stop offset="0.6875" style="stop-color:rgb(46.754456%,69.360352%,96.350098%);stop-opacity:1;"/>
<stop offset="0.703125" style="stop-color:rgb(46.980286%,69.512939%,96.411133%);stop-opacity:1;"/>
<stop offset="0.71875" style="stop-color:rgb(47.207642%,69.665527%,96.472168%);stop-opacity:1;"/>
<stop offset="0.734375" style="stop-color:rgb(47.433472%,69.819641%,96.533203%);stop-opacity:1;"/>
<stop offset="0.75" style="stop-color:rgb(47.660828%,69.972229%,96.594238%);stop-opacity:1;"/>
<stop offset="0.765625" style="stop-color:rgb(47.886658%,70.124817%,96.655273%);stop-opacity:1;"/>
<stop offset="0.78125" style="stop-color:rgb(48.114014%,70.278931%,96.716309%);stop-opacity:1;"/>
<stop offset="0.796875" style="stop-color:rgb(48.339844%,70.431519%,96.775818%);stop-opacity:1;"/>
<stop offset="0.8125" style="stop-color:rgb(48.5672%,70.585632%,96.836853%);stop-opacity:1;"/>
<stop offset="0.828125" style="stop-color:rgb(48.79303%,70.73822%,96.897888%);stop-opacity:1;"/>
<stop offset="0.84375" style="stop-color:rgb(49.020386%,70.890808%,96.958923%);stop-opacity:1;"/>
<stop offset="0.859375" style="stop-color:rgb(49.246216%,71.044922%,97.019958%);stop-opacity:1;"/>
<stop offset="0.875" style="stop-color:rgb(49.473572%,71.19751%,97.080994%);stop-opacity:1;"/>
<stop offset="0.890625" style="stop-color:rgb(49.699402%,71.350098%,97.142029%);stop-opacity:1;"/>
<stop offset="0.90625" style="stop-color:rgb(49.926758%,71.504211%,97.203064%);stop-opacity:1;"/>
<stop offset="0.921875" style="stop-color:rgb(50.152588%,71.656799%,97.264099%);stop-opacity:1;"/>
<stop offset="0.9375" style="stop-color:rgb(50.379944%,71.809387%,97.325134%);stop-opacity:1;"/>
<stop offset="0.953125" style="stop-color:rgb(50.605774%,71.963501%,97.386169%);stop-opacity:1;"/>
<stop offset="0.96875" style="stop-color:rgb(50.83313%,72.116089%,97.447205%);stop-opacity:1;"/>
<stop offset="0.984375" style="stop-color:rgb(51.05896%,72.268677%,97.50824%);stop-opacity:1;"/>
<stop offset="1" style="stop-color:rgb(51.286316%,72.422791%,97.569275%);stop-opacity:1;"/>
</linearGradient>
<clipPath id="clip5">
  <path d="M 18.75 11.25 L 81 11.25 L 81 77 L 18.75 77 Z M 18.75 11.25 "/>
</clipPath>
<clipPath id="clip6">
  <path d="M 309 27 L 356.25 27 L 356.25 75 L 309 75 Z M 309 27 "/>
</clipPath>
<clipPath id="clip7">
  <path d="M 301 23 L 356.25 23 L 356.25 80 L 301 80 Z M 301 23 "/>
</clipPath>
<clipPath id="clip8">
  <path d="M 63 155 L 133 155 L 133 227.25 L 63 227.25 Z M 63 155 "/>
</clipPath>
<clipPath id="clip9">
  <path d="M 128 194 L 171 194 L 171 227.25 L 128 227.25 Z M 128 194 "/>
</clipPath>
</defs>
<g id="surface1">
<g clip-path="url(#clip1)" clip-rule="nonzero">
<g clip-path="url(#clip2)" clip-rule="nonzero">
<path style=" stroke:none;fill-rule:nonzero;fill:url(#linear0);" d="M 310.851562 68.847656 L 310.851562 112.777344 L 354.78125 112.777344 L 354.78125 68.847656 Z M 310.851562 68.847656 "/>
</g>
</g>
<path style=" stroke:none;fill-rule:nonzero;fill:rgb(61.178589%,92.158508%,100%);fill-opacity:1;" d="M 318.644531 79.566406 L 318.644531 77.300781 C 318.648438 77.214844 318.667969 77.132812 318.707031 77.058594 C 318.742188 76.980469 318.792969 76.914062 318.855469 76.855469 C 318.917969 76.800781 318.988281 76.757812 319.070312 76.730469 C 319.148438 76.703125 319.230469 76.691406 319.316406 76.695312 L 345.972656 76.695312 C 346.054688 76.6875 346.136719 76.699219 346.214844 76.730469 C 346.292969 76.757812 346.363281 76.800781 346.421875 76.859375 C 346.480469 76.914062 346.53125 76.984375 346.5625 77.058594 C 346.59375 77.136719 346.609375 77.214844 346.609375 77.300781 L 346.609375 80.808594 C 346.609375 80.890625 346.59375 80.972656 346.5625 81.046875 C 346.53125 81.125 346.480469 81.191406 346.421875 81.246094 C 346.363281 81.304688 346.292969 81.347656 346.214844 81.378906 C 346.136719 81.40625 346.054688 81.417969 345.972656 81.414062 C 345.890625 81.410156 345.804688 81.40625 345.726562 81.378906 C 345.648438 81.347656 345.574219 81.304688 345.511719 81.25 C 345.449219 81.195312 345.398438 81.125 345.363281 81.050781 C 345.328125 80.972656 345.304688 80.894531 345.300781 80.808594 L 345.300781 77.90625 L 319.984375 77.90625 L 319.984375 79.566406 C 319.980469 79.648438 319.960938 79.730469 319.925781 79.808594 C 319.886719 79.882812 319.839844 79.953125 319.773438 80.007812 C 319.710938 80.0625 319.640625 80.109375 319.558594 80.136719 C 319.480469 80.164062 319.398438 80.175781 319.3125 80.171875 C 319.144531 80.171875 318.984375 80.109375 318.859375 80 C 318.730469 79.882812 318.65625 79.738281 318.644531 79.5625 Z M 315.386719 79.886719 L 315.386719 74.777344 C 315.390625 74.695312 315.410156 74.613281 315.449219 74.535156 C 315.484375 74.460938 315.535156 74.390625 315.597656 74.335938 C 315.660156 74.28125 315.730469 74.238281 315.8125 74.210938 C 315.890625 74.179688 315.972656 74.167969 316.058594 74.171875 L 349.035156 73.757812 C 349.125 73.753906 349.214844 73.769531 349.292969 73.804688 C 349.375 73.839844 349.449219 73.886719 349.515625 73.949219 C 349.578125 74 349.625 74.0625 349.660156 74.136719 C 349.691406 74.210938 349.707031 74.285156 349.703125 74.367188 L 349.703125 83.464844 L 348.398438 83.464844 L 348.398438 75 L 316.726562 75.382812 L 316.726562 79.882812 Z M 315.386719 79.886719 "/>
<g clip-path="url(#clip3)" clip-rule="nonzero">
<g clip-path="url(#clip4)" clip-rule="nonzero">
<path style=" stroke:none;fill-rule:nonzero;fill:url(#linear1);" d="M 326.335938 74.367188 L 326.335938 89.613281 L 340.40625 89.613281 L 340.40625 74.367188 Z M 326.335938 74.367188 "/>
</g>
</g>
<path style=" stroke:none;fill-rule:nonzero;fill:rgb(16.468811%,30.589294%,46.669006%);fill-opacity:1;" d="M 327.921875 101.40625 L 327.921875 104.039062 C 327.921875 104.125 328.234375 104.195312 328.625 104.195312 L 330.164062 104.195312 C 330.550781 104.195312 330.867188 104.125 330.867188 104.039062 L 330.867188 101.40625 C 330.867188 101.320312 330.550781 101.25 330.164062 101.25 L 328.625 101.25 C 328.234375 101.25 327.921875 101.320312 327.921875 101.40625 Z M 327.921875 101.40625 "/>
<path style=" stroke:none;fill-rule:nonzero;fill:rgb(16.468811%,30.589294%,46.669006%);fill-opacity:1;" d="M 335.289062 101.40625 L 335.289062 104.039062 C 335.289062 104.125 335.605469 104.195312 335.992188 104.195312 L 337.53125 104.195312 C 337.921875 104.195312 338.234375 104.125 338.234375 104.039062 L 338.234375 101.40625 C 338.234375 101.320312 337.921875 101.25 337.53125 101.25 L 335.992188 101.25 C 335.605469 101.25 335.289062 101.320312 335.289062 101.40625 Z M 335.289062 101.40625 "/>
<path style=" stroke:none;fill-rule:nonzero;fill:rgb(16.468811%,30.589294%,46.669006%);fill-opacity:1;" d="M 343.835938 91.507812 L 343.835938 72.089844 C 343.835938 71.597656 343.042969 71.191406 342.0625 71.191406 L 324.394531 71.191406 C 323.414062 71.191406 322.617188 71.597656 322.617188 72.089844 L 322.617188 91.511719 C 322.617188 92.007812 323.410156 92.410156 324.394531 92.410156 L 342.0625 92.410156 C 343.039062 92.410156 343.835938 92.007812 343.835938 91.511719 Z M 315.546875 80.460938 L 315.546875 102.589844 C 315.546875 103.3125 315.925781 103.902344 316.390625 103.902344 L 318.242188 103.902344 C 318.707031 103.902344 319.085938 103.3125 319.085938 102.589844 L 319.085938 80.460938 C 319.085938 79.738281 318.707031 79.148438 318.242188 79.148438 L 316.390625 79.148438 C 315.925781 79.148438 315.546875 79.738281 315.546875 80.460938 Z M 346.488281 82.136719 L 346.488281 102.683594 C 346.488281 103.355469 346.867188 103.902344 347.332031 103.902344 L 349.183594 103.902344 C 349.648438 103.902344 350.027344 103.355469 350.027344 102.683594 L 350.027344 82.136719 C 350.027344 81.460938 349.648438 80.914062 349.183594 80.914062 L 347.332031 80.914062 C 346.867188 80.914062 346.488281 81.460938 346.488281 82.136719 Z M 330.574219 108.761719 C 330.574219 109.984375 331.5625 110.976562 332.785156 110.976562 C 334.007812 110.976562 334.996094 109.984375 334.996094 108.761719 C 334.996094 107.539062 334.007812 106.550781 332.785156 106.550781 C 331.5625 106.550781 330.574219 107.539062 330.574219 108.761719 Z M 330.574219 108.761719 "/>
<path style=" stroke:none;fill-rule:nonzero;fill:rgb(0%,0%,0%);fill-opacity:1;" d="M 123.289062 90.386719 C 123.066406 88.28125 123.066406 88.589844 122.265625 86.308594 C 121.445312 84.003906 119.726562 79.488281 118.5 76.820312 C 117.242188 74.121094 115.902344 71.804688 114.929688 70.386719 C 113.964844 68.964844 113.707031 68.847656 112.796875 68.449219 C 111.851562 68.046875 110.644531 68.113281 109.4375 68.039062 C 108.242188 67.9375 106.988281 67.878906 105.65625 67.878906 L 90.445312 67.878906 C 89.082031 67.878906 87.796875 67.929688 86.59375 68.035156 C 85.386719 68.113281 84.144531 68.039062 83.230469 68.441406 C 82.304688 68.835938 82.039062 68.957031 81.097656 70.378906 C 80.101562 71.804688 78.785156 74.113281 77.539062 76.8125 C 76.292969 79.480469 74.574219 84.003906 73.777344 86.300781 C 72.96875 88.582031 72.9375 88.28125 72.75 90.378906 C 72.542969 92.503906 72.15625 96.523438 72.542969 98.765625 C 72.917969 100.929688 73.835938 102.386719 74.980469 103.449219 C 76.125 104.5 77.570312 105.042969 79.359375 105.089844 C 79.257812 107.316406 79.257812 109.042969 79.359375 110.296875 C 79.410156 111.527344 79.320312 112.070312 79.875 112.535156 C 80.433594 112.988281 81.851562 113.007812 82.726562 113.046875 C 83.578125 113.097656 84.5 113.078125 84.96875 112.742188 C 85.40625 112.367188 85.277344 112.078125 85.367188 110.792969 C 85.4375 109.480469 85.488281 107.570312 85.472656 104.992188 L 110.40625 104.992188 C 110.472656 107.574219 110.542969 109.480469 110.664062 110.792969 C 110.761719 112.078125 110.625 112.363281 111.066406 112.742188 C 111.53125 113.074219 112.421875 113.097656 113.300781 113.046875 C 114.140625 113.015625 115.566406 112.988281 116.148438 112.535156 C 116.679688 112.070312 116.589844 111.527344 116.664062 110.296875 C 116.75 109.042969 116.75 107.316406 116.664062 105.089844 C 118.449219 105.042969 119.894531 104.5 121.039062 103.449219 C 122.183594 102.386719 123.09375 100.921875 123.488281 98.765625 C 123.835938 96.523438 123.5 92.503906 123.289062 90.386719 Z M 79.933594 99.570312 C 77.300781 99.570312 75.152344 97.425781 75.152344 94.777344 C 75.152344 92.128906 77.300781 89.984375 79.933594 89.984375 C 82.578125 89.984375 84.714844 92.136719 84.714844 94.777344 C 84.714844 97.425781 82.578125 99.570312 79.933594 99.570312 Z M 104.8125 98.652344 L 91.226562 98.652344 C 89.804688 98.652344 88.65625 97.878906 88.65625 96.917969 C 88.65625 95.960938 89.804688 95.179688 91.226562 95.179688 L 104.8125 95.179688 C 106.234375 95.179688 107.382812 95.960938 107.382812 96.917969 C 107.382812 97.878906 106.234375 98.652344 104.8125 98.652344 Z M 104.8125 93.957031 L 91.226562 93.957031 C 89.804688 93.957031 88.65625 93.175781 88.65625 92.21875 C 88.65625 91.265625 89.804688 90.488281 91.226562 90.488281 L 104.8125 90.488281 C 106.234375 90.488281 107.382812 91.265625 107.382812 92.21875 C 107.382812 93.183594 106.234375 93.957031 104.8125 93.957031 Z M 106.988281 84.882812 C 103.027344 84.894531 92.789062 84.894531 88.875 84.882812 C 84.984375 84.847656 85.328125 84.914062 83.777344 84.773438 C 82.222656 84.636719 80.394531 84.507812 79.605469 84.0625 C 78.824219 83.578125 78.914062 83.027344 79.09375 82.019531 C 79.28125 80.980469 79.933594 79.449219 80.625 77.9375 C 81.292969 76.394531 82.261719 74.121094 82.964844 72.929688 C 83.628906 71.734375 83.953125 71.328125 84.6875 70.890625 C 85.425781 70.445312 86.335938 70.371094 87.335938 70.277344 C 88.324219 70.152344 89.40625 70.125 90.601562 70.183594 L 105.417969 70.183594 C 106.609375 70.132812 107.691406 70.152344 108.679688 70.277344 C 109.65625 70.371094 110.574219 70.445312 111.328125 70.890625 C 112.058594 71.328125 112.351562 71.734375 113.054688 72.929688 C 113.757812 74.121094 114.714844 76.394531 115.398438 77.9375 C 116.039062 79.449219 116.742188 80.980469 116.925781 82.019531 C 117.09375 83.027344 117.183594 83.578125 116.414062 84.0625 C 115.605469 84.507812 113.816406 84.636719 112.242188 84.773438 C 110.664062 84.914062 110.890625 84.847656 106.988281 84.882812 Z M 116.097656 99.570312 C 113.460938 99.570312 111.316406 97.425781 111.316406 94.777344 C 111.316406 92.128906 113.460938 89.984375 116.097656 89.984375 C 118.738281 89.984375 120.878906 92.136719 120.878906 94.777344 C 120.878906 97.425781 118.738281 99.570312 116.097656 99.570312 Z M 116.097656 99.570312 "/>
<path style="fill-rule:nonzero;fill:rgb(100%,100%,100%);fill-opacity:1;stroke-width:2;stroke-linecap:butt;stroke-linejoin:miter;stroke:rgb(0%,0%,0%);stroke-opacity:1;stroke-miterlimit:4;" d="M 39.997677 39.997731 L 119.997409 39.997731 L 119.997409 119.997464 L 39.997677 119.997464 Z M 39.997677 39.997731 " transform="matrix(0.645998,0,0,0.645998,-5.686086,-13.193933)"/>
<path style="fill-rule:nonzero;fill:rgb(100%,100%,100%);fill-opacity:1;stroke-width:2;stroke-linecap:butt;stroke-linejoin:miter;stroke:rgb(0%,0%,0%);stroke-opacity:1;stroke-miterlimit:4;" d="M 119.997409 39.997731 L 199.997142 39.997731 L 199.997142 119.997464 L 119.997409 119.997464 Z M 119.997409 39.997731 " transform="matrix(0.645998,0,0,0.645998,-5.686086,-13.193933)"/>
<path style="fill-rule:nonzero;fill:rgb(100%,100%,100%);fill-opacity:1;stroke-width:2;stroke-linecap:butt;stroke-linejoin:miter;stroke:rgb(0%,0%,0%);stroke-opacity:1;stroke-miterlimit:4;" d="M 39.997677 119.997464 L 119.997409 119.997464 L 119.997409 199.997196 L 39.997677 199.997196 Z M 39.997677 119.997464 " transform="matrix(0.645998,0,0,0.645998,-5.686086,-13.193933)"/>
<path style="fill-rule:nonzero;fill:rgb(100%,100%,100%);fill-opacity:1;stroke-width:2;stroke-linecap:butt;stroke-linejoin:miter;stroke:rgb(0%,0%,0%);stroke-opacity:1;stroke-miterlimit:4;" d="M 199.997142 39.997731 L 280.002921 39.997731 L 280.002921 119.997464 L 199.997142 119.997464 Z M 199.997142 39.997731 " transform="matrix(0.645998,0,0,0.645998,-5.686086,-13.193933)"/>
<path style="fill-rule:nonzero;fill:rgb(100%,100%,100%);fill-opacity:1;stroke-width:2;stroke-linecap:butt;stroke-linejoin:miter;stroke:rgb(0%,0%,0%);stroke-opacity:1;stroke-miterlimit:4;" d="M 119.997409 199.997196 L 199.997142 199.997196 L 199.997142 280.002976 L 119.997409 280.002976 Z M 119.997409 199.997196 " transform="matrix(0.645998,0,0,0.645998,-5.686086,-13.193933)"/>
<path style="fill-rule:nonzero;fill:rgb(100%,100%,100%);fill-opacity:1;stroke-width:2;stroke-linecap:butt;stroke-linejoin:miter;stroke:rgb(0%,0%,0%);stroke-opacity:1;stroke-miterlimit:4;" d="M 199.997142 119.997464 L 280.002921 119.997464 L 280.002921 199.997196 L 199.997142 199.997196 Z M 199.997142 119.997464 " transform="matrix(0.645998,0,0,0.645998,-5.686086,-13.193933)"/>
<path style="fill-rule:nonzero;fill:rgb(100%,100%,100%);fill-opacity:1;stroke-width:2;stroke-linecap:butt;stroke-linejoin:miter;stroke:rgb(0%,0%,0%);stroke-opacity:1;stroke-miterlimit:4;" d="M 39.997677 199.997196 L 119.997409 199.997196 L 119.997409 280.002976 L 39.997677 280.002976 Z M 39.997677 199.997196 " transform="matrix(0.645998,0,0,0.645998,-5.686086,-13.193933)"/>
<path style="fill-rule:nonzero;fill:rgb(100%,100%,100%);fill-opacity:1;stroke-width:2;stroke-linecap:butt;stroke-linejoin:miter;stroke:rgb(0%,0%,0%);stroke-opacity:1;stroke-miterlimit:4;" d="M 199.997142 199.997196 L 280.002921 199.997196 L 280.002921 280.002976 L 199.997142 280.002976 Z M 199.997142 199.997196 " transform="matrix(0.645998,0,0,0.645998,-5.686086,-13.193933)"/>
<path style=" stroke:none;fill-rule:nonzero;fill:rgb(100%,70.979309%,43.919373%);fill-opacity:1;" d="M 45.992188 19.105469 L 62.144531 53.988281 C 62.144531 56.128906 54.914062 57.867188 45.992188 57.867188 C 37.074219 57.867188 29.84375 56.128906 29.84375 53.988281 Z M 45.992188 19.105469 "/>
<g clip-path="url(#clip5)" clip-rule="nonzero">
<path style="fill:none;stroke-width:2;stroke-linecap:butt;stroke-linejoin:miter;stroke:rgb(0%,0%,0%);stroke-opacity:1;stroke-miterlimit:10;" d="M 79.997543 49.999209 L 105.001239 103.997517 C 105.001239 107.311187 93.808532 110.002032 79.997543 110.002032 C 66.1926 110.002032 54.999894 107.311187 54.999894 103.997517 Z M 79.997543 49.999209 " transform="matrix(0.645998,0,0,0.645998,-5.686086,-13.193933)"/>
</g>
<path style="fill-rule:nonzero;fill:rgb(100%,100%,100%);fill-opacity:1;stroke-width:2;stroke-linecap:butt;stroke-linejoin:miter;stroke:rgb(0%,0%,0%);stroke-opacity:1;stroke-miterlimit:4;" d="M 280.002921 39.997731 L 360.002654 39.997731 L 360.002654 119.997464 L 280.002921 119.997464 Z M 280.002921 39.997731 " transform="matrix(0.645998,0,0,0.645998,-5.686086,-13.193933)"/>
<path style="fill-rule:nonzero;fill:rgb(100%,100%,100%);fill-opacity:1;stroke-width:2;stroke-linecap:butt;stroke-linejoin:miter;stroke:rgb(0%,0%,0%);stroke-opacity:1;stroke-miterlimit:4;" d="M 280.002921 119.997464 L 360.002654 119.997464 L 360.002654 199.997196 L 280.002921 199.997196 Z M 280.002921 119.997464 " transform="matrix(0.645998,0,0,0.645998,-5.686086,-13.193933)"/>
<path style="fill-rule:nonzero;fill:rgb(100%,100%,100%);fill-opacity:1;stroke-width:2;stroke-linecap:butt;stroke-linejoin:miter;stroke:rgb(0%,0%,0%);stroke-opacity:1;stroke-miterlimit:4;" d="M 280.002921 199.997196 L 360.002654 199.997196 L 360.002654 280.002976 L 280.002921 280.002976 Z M 280.002921 199.997196 " transform="matrix(0.645998,0,0,0.645998,-5.686086,-13.193933)"/>
<path style="fill-rule:nonzero;fill:rgb(100%,100%,100%);fill-opacity:1;stroke-width:2;stroke-linecap:butt;stroke-linejoin:miter;stroke:rgb(0%,0%,0%);stroke-opacity:1;stroke-miterlimit:4;" d="M 39.997677 280.002976 L 119.997409 280.002976 L 119.997409 360.002708 L 39.997677 360.002708 Z M 39.997677 280.002976 " transform="matrix(0.645998,0,0,0.645998,-5.686086,-13.193933)"/>
<path style="fill-rule:nonzero;fill:rgb(100%,100%,100%);fill-opacity:1;stroke-width:2;stroke-linecap:butt;stroke-linejoin:miter;stroke:rgb(0%,0%,0%);stroke-opacity:1;stroke-miterlimit:4;" d="M 119.997409 280.002976 L 199.997142 280.002976 L 199.997142 360.002708 L 119.997409 360.002708 Z M 119.997409 280.002976 " transform="matrix(0.645998,0,0,0.645998,-5.686086,-13.193933)"/>
<path style="fill-rule:nonzero;fill:rgb(100%,100%,100%);fill-opacity:1;stroke-width:2;stroke-linecap:butt;stroke-linejoin:miter;stroke:rgb(0%,0%,0%);stroke-opacity:1;stroke-miterlimit:4;" d="M 199.997142 280.002976 L 280.002921 280.002976 L 280.002921 360.002708 L 199.997142 360.002708 Z M 199.997142 280.002976 " transform="matrix(0.645998,0,0,0.645998,-5.686086,-13.193933)"/>
<path style="fill-rule:nonzero;fill:rgb(100%,100%,100%);fill-opacity:1;stroke-width:2;stroke-linecap:butt;stroke-linejoin:miter;stroke:rgb(0%,0%,0%);stroke-opacity:1;stroke-miterlimit:4;" d="M 280.002921 280.002976 L 360.002654 280.002976 L 360.002654 360.002708 L 280.002921 360.002708 Z M 280.002921 280.002976 " transform="matrix(0.645998,0,0,0.645998,-5.686086,-13.193933)"/>
<path style=" stroke:none;fill-rule:nonzero;fill:rgb(100%,100%,100%);fill-opacity:1;" d="M 348.96875 51.40625 C 348.96875 51.933594 348.941406 52.460938 348.890625 52.988281 C 348.835938 53.515625 348.761719 54.039062 348.65625 54.554688 C 348.554688 55.074219 348.425781 55.585938 348.273438 56.09375 C 348.117188 56.601562 347.941406 57.097656 347.738281 57.585938 C 347.535156 58.074219 347.308594 58.550781 347.058594 59.019531 C 346.8125 59.484375 346.539062 59.9375 346.246094 60.378906 C 345.953125 60.816406 345.636719 61.242188 345.300781 61.652344 C 344.964844 62.058594 344.609375 62.453125 344.238281 62.824219 C 343.863281 63.199219 343.472656 63.554688 343.0625 63.890625 C 342.652344 64.226562 342.230469 64.539062 341.789062 64.835938 C 341.351562 65.128906 340.898438 65.398438 340.429688 65.648438 C 339.964844 65.898438 339.484375 66.125 338.996094 66.328125 C 338.507812 66.527344 338.011719 66.707031 337.503906 66.859375 C 337 67.015625 336.488281 67.140625 335.96875 67.246094 C 335.449219 67.347656 334.925781 67.425781 334.398438 67.476562 C 333.875 67.53125 333.347656 67.554688 332.816406 67.554688 C 332.289062 67.554688 331.761719 67.53125 331.234375 67.476562 C 330.707031 67.425781 330.183594 67.347656 329.667969 67.246094 C 329.148438 67.140625 328.636719 67.015625 328.128906 66.859375 C 327.621094 66.707031 327.125 66.527344 326.636719 66.328125 C 326.148438 66.125 325.671875 65.898438 325.203125 65.648438 C 324.738281 65.398438 324.285156 65.128906 323.84375 64.835938 C 323.40625 64.539062 322.980469 64.226562 322.570312 63.890625 C 322.164062 63.554688 321.769531 63.199219 321.398438 62.824219 C 321.023438 62.453125 320.667969 62.058594 320.332031 61.652344 C 319.996094 61.242188 319.683594 60.816406 319.390625 60.378906 C 319.09375 59.9375 318.824219 59.484375 318.574219 59.019531 C 318.324219 58.550781 318.097656 58.074219 317.894531 57.585938 C 317.695312 57.097656 317.515625 56.601562 317.363281 56.09375 C 317.207031 55.585938 317.082031 55.074219 316.976562 54.554688 C 316.875 54.039062 316.796875 53.515625 316.746094 52.988281 C 316.691406 52.460938 316.667969 51.933594 316.667969 51.40625 C 316.667969 50.878906 316.691406 50.347656 316.746094 49.824219 C 316.796875 49.296875 316.875 48.773438 316.976562 48.253906 C 317.082031 47.738281 317.207031 47.222656 317.363281 46.71875 C 317.515625 46.210938 317.695312 45.714844 317.894531 45.226562 C 318.097656 44.738281 318.324219 44.257812 318.574219 43.792969 C 318.824219 43.328125 319.09375 42.875 319.390625 42.433594 C 319.683594 41.992188 319.996094 41.570312 320.332031 41.160156 C 320.667969 40.75 321.023438 40.359375 321.398438 39.984375 C 321.769531 39.613281 322.164062 39.257812 322.570312 38.921875 C 322.980469 38.585938 323.40625 38.273438 323.84375 37.976562 C 324.285156 37.683594 324.738281 37.414062 325.203125 37.164062 C 325.671875 36.914062 326.148438 36.6875 326.636719 36.484375 C 327.125 36.28125 327.621094 36.105469 328.128906 35.953125 C 328.636719 35.796875 329.148438 35.667969 329.667969 35.566406 C 330.183594 35.464844 330.707031 35.386719 331.234375 35.332031 C 331.761719 35.28125 332.289062 35.257812 332.816406 35.257812 C 333.347656 35.257812 333.875 35.28125 334.398438 35.332031 C 334.925781 35.386719 335.449219 35.464844 335.96875 35.566406 C 336.488281 35.667969 337 35.796875 337.503906 35.953125 C 338.011719 36.105469 338.507812 36.28125 338.996094 36.484375 C 339.484375 36.6875 339.964844 36.914062 340.429688 37.164062 C 340.898438 37.414062 341.351562 37.683594 341.789062 37.976562 C 342.230469 38.273438 342.652344 38.585938 343.0625 38.921875 C 343.472656 39.257812 343.863281 39.613281 344.238281 39.984375 C 344.609375 40.359375 344.964844 40.75 345.300781 41.160156 C 345.636719 41.570312 345.953125 41.992188 346.246094 42.433594 C 346.539062 42.875 346.8125 43.328125 347.058594 43.792969 C 347.308594 44.257812 347.535156 44.738281 347.738281 45.226562 C 347.941406 45.714844 348.117188 46.210938 348.273438 46.71875 C 348.425781 47.222656 348.554688 47.738281 348.65625 48.253906 C 348.761719 48.773438 348.835938 49.296875 348.890625 49.824219 C 348.941406 50.347656 348.96875 50.878906 348.96875 51.40625 Z M 348.96875 51.40625 "/>
<g clip-path="url(#clip6)" clip-rule="nonzero">
<path style="fill:none;stroke-width:2;stroke-linecap:butt;stroke-linejoin:miter;stroke:rgb(0%,50.19989%,94.119263%);stroke-opacity:1;stroke-miterlimit:4;" d="M 549.002778 100.000554 C 549.002778 100.816878 548.96045 101.633202 548.881841 102.449525 C 548.797185 103.265849 548.682295 104.076126 548.519031 104.874309 C 548.361813 105.67854 548.162267 106.470676 547.92644 107.256766 C 547.684566 108.042855 547.412458 108.810804 547.098022 109.56666 C 546.783587 110.322515 546.43287 111.06023 546.045872 111.785851 C 545.664921 112.505425 545.241642 113.206859 544.788128 113.890152 C 544.334615 114.567399 543.844821 115.226505 543.324792 115.861423 C 542.804764 116.490295 542.254501 117.101026 541.680051 117.675476 C 541.099554 118.255973 540.49487 118.806236 539.859951 119.326264 C 539.225033 119.846293 538.571974 120.33004 537.888681 120.7896 C 537.211434 121.243113 536.51 121.660346 535.784379 122.047344 C 535.064805 122.434341 534.321043 122.785058 533.565188 123.099494 C 532.809333 123.407883 532.041383 123.686038 531.255294 123.921865 C 530.475251 124.163739 529.683115 124.357238 528.878885 124.520502 C 528.074654 124.67772 527.264377 124.798657 526.448054 124.877266 C 525.637777 124.961922 524.821453 124.998203 523.999082 124.998203 C 523.182758 124.998203 522.366435 124.961922 521.550111 124.877266 C 520.733787 124.798657 519.92351 124.67772 519.125327 124.520502 C 518.321097 124.357238 517.52896 124.163739 516.742871 123.921865 C 515.956781 123.686038 515.188832 123.407883 514.432977 123.099494 C 513.677121 122.785058 512.939406 122.434341 512.213785 122.047344 C 511.494211 121.660346 510.792777 121.243113 510.109484 120.7896 C 509.432238 120.33004 508.773132 119.846293 508.138213 119.326264 C 507.509341 118.806236 506.89861 118.255973 506.32416 117.675476 C 505.743663 117.101026 505.193401 116.490295 504.673372 115.861423 C 504.153344 115.226505 503.669596 114.567399 503.216083 113.890152 C 502.756523 113.206859 502.339291 112.505425 501.952293 111.785851 C 501.565295 111.06023 501.214578 110.322515 500.900142 109.56666 C 500.591753 108.810804 500.313598 108.042855 500.077771 107.256766 C 499.835898 106.470676 499.642399 105.67854 499.479134 104.874309 C 499.321916 104.076126 499.200979 103.265849 499.12237 102.449525 C 499.037714 101.633202 499.001433 100.816878 499.001433 100.000554 C 499.001433 99.18423 499.037714 98.36186 499.12237 97.551583 C 499.200979 96.735259 499.321916 95.924982 499.479134 95.120752 C 499.642399 94.322568 499.835898 93.524385 500.077771 92.744342 C 500.313598 91.958253 500.591753 91.190304 500.900142 90.434448 C 501.214578 89.678593 501.565295 88.934831 501.952293 88.215257 C 502.339291 87.495683 502.756523 86.794249 503.216083 86.110956 C 503.669596 85.427662 504.153344 84.774603 504.673372 84.139685 C 505.193401 83.504766 505.743663 82.900082 506.32416 82.319585 C 506.89861 81.745135 507.509341 81.194872 508.138213 80.674844 C 508.773132 80.154815 509.432238 79.671068 510.109484 79.211508 C 510.792777 78.757995 511.494211 78.340762 512.213785 77.953765 C 512.939406 77.566767 513.677121 77.21605 514.432977 76.901614 C 515.188832 76.587178 515.956781 76.31507 516.742871 76.079243 C 517.52896 75.837369 518.321097 75.637824 519.125327 75.480606 C 519.92351 75.323388 520.733787 75.202451 521.550111 75.117795 C 522.366435 75.039186 523.182758 75.002905 523.999082 75.002905 C 524.821453 75.002905 525.637777 75.039186 526.448054 75.117795 C 527.264377 75.202451 528.074654 75.323388 528.878885 75.480606 C 529.683115 75.637824 530.475251 75.837369 531.255294 76.079243 C 532.041383 76.31507 532.809333 76.587178 533.565188 76.901614 C 534.321043 77.21605 535.064805 77.566767 535.784379 77.953765 C 536.51 78.340762 537.211434 78.757995 537.888681 79.211508 C 538.571974 79.671068 539.225033 80.154815 539.859951 80.674844 C 540.49487 81.194872 541.099554 81.745135 541.680051 82.319585 C 542.254501 82.900082 542.804764 83.504766 543.324792 84.139685 C 543.844821 84.774603 544.334615 85.427662 544.788128 86.110956 C 545.241642 86.794249 545.664921 87.495683 546.045872 88.215257 C 546.43287 88.934831 546.783587 89.678593 547.098022 90.434448 C 547.412458 91.190304 547.684566 91.958253 547.92644 92.744342 C 548.162267 93.524385 548.361813 94.322568 548.519031 95.120752 C 548.682295 95.924982 548.797185 96.735259 548.881841 97.551583 C 548.96045 98.36186 549.002778 99.18423 549.002778 100.000554 Z M 549.002778 100.000554 " transform="matrix(0.645998,0,0,0.645998,-5.686086,-13.193933)"/>
</g>
<g clip-path="url(#clip7)" clip-rule="nonzero">
<path style="fill:none;stroke-width:2;stroke-linecap:butt;stroke-linejoin:miter;stroke:rgb(0%,50.19989%,94.119263%);stroke-opacity:1;stroke-miterlimit:10;" d="M 504.002173 115.002771 C 505.368759 111.628633 511.137447 109.161521 518.000614 108.998256 C 518.442034 109.070818 518.8895 108.949882 519.228123 108.659633 C 519.5607 108.369385 519.760245 107.952153 519.748152 107.498639 C 520.092822 104.311953 518.877406 101.149454 516.500997 99.002825 C 515.890266 99.002825 515.400472 97.769269 515.400472 96.251511 C 515.400472 94.727707 515.890266 93.500198 516.500997 93.500198 C 516.222842 91.299147 516.869854 89.067862 518.290863 87.368699 C 519.711871 85.657442 521.779891 84.617385 523.999082 84.502495 C 526.218274 84.617385 528.292341 85.657442 529.707302 87.368699 C 531.12831 89.067862 531.781369 91.299147 531.497168 93.500198 C 532.107899 93.500198 532.597693 94.727707 532.597693 96.251511 C 532.597693 97.769269 532.107899 99.002825 531.497168 99.002825 C 529.120758 101.149454 527.91139 104.311953 528.250013 107.498639 C 528.237919 107.952153 528.437465 108.369385 528.770041 108.659633 C 529.108665 108.949882 529.562178 109.070818 529.997551 108.998256 C 536.860717 109.161521 542.629405 111.628633 544.002039 115.002771 " transform="matrix(0.645998,0,0,0.645998,-5.686086,-13.193933)"/>
</g>
<path style="fill:none;stroke-width:2;stroke-linecap:butt;stroke-linejoin:miter;stroke:rgb(0%,50.19989%,94.119263%);stroke-opacity:1;stroke-miterlimit:10;" d="M 390.001042 141.899129 L 404.997212 126.902958 L 397.499127 119.997464 L 397.499127 148.798577 L 404.997212 141.899129 L 390.001042 126.902958 " transform="matrix(0.645998,0,0,0.645998,-5.686086,-13.193933)"/>
<path style="fill-rule:nonzero;fill:rgb(100%,100%,100%);fill-opacity:1;stroke-width:2;stroke-linecap:butt;stroke-linejoin:miter;stroke:rgb(0%,50.19989%,94.119263%);stroke-opacity:1;stroke-miterlimit:10;" d="M 220.241972 165.36088 L 220.308487 176.360087 L 200.202735 159.991283 L 220.090801 143.362465 L 220.157316 154.361672 L 464.201852 152.7774 L 464.12929 141.778192 L 484.24109 158.146996 L 464.353023 174.781861 L 464.280461 163.782654 Z M 220.241972 165.36088 " transform="matrix(0.645998,0,0,0.645998,-5.686086,-13.193933)"/>
<path style=" stroke:none;fill-rule:nonzero;fill:rgb(100%,70.979309%,43.919373%);fill-opacity:1;" d="M 97.671875 174.144531 L 113.824219 209.03125 C 113.824219 211.167969 106.59375 212.90625 97.671875 212.90625 C 88.753906 212.90625 81.523438 211.167969 81.523438 209.03125 Z M 97.671875 174.144531 "/>
<g clip-path="url(#clip8)" clip-rule="nonzero">
<path style="fill:none;stroke-width:2;stroke-linecap:butt;stroke-linejoin:miter;stroke:rgb(0%,0%,0%);stroke-opacity:1;stroke-miterlimit:10;" d="M 159.997276 289.998407 L 185.000971 344.002762 C 185.000971 347.310385 173.808265 350.00123 159.997276 350.00123 C 146.192333 350.00123 134.999627 347.310385 134.999627 344.002762 Z M 159.997276 289.998407 " transform="matrix(0.645998,0,0,0.645998,-5.686086,-13.193933)"/>
</g>
<path style="fill:none;stroke-width:2;stroke-linecap:butt;stroke-linejoin:miter;stroke:rgb(0%,79.998779%,0%);stroke-opacity:1;stroke-miterlimit:10;" d="M 159.997276 199.997196 L 159.997276 239.997063 L 191.761342 239.997063 " transform="matrix(0.645998,0,0,0.645998,-5.686086,-13.193933)"/>
<path style="fill-rule:nonzero;fill:rgb(0%,79.998779%,0%);fill-opacity:1;stroke-width:2;stroke-linecap:butt;stroke-linejoin:miter;stroke:rgb(0%,79.998779%,0%);stroke-opacity:1;stroke-miterlimit:10;" d="M 197.75981 239.997063 L 189.759837 244.000073 L 191.761342 239.997063 L 189.759837 236.000099 Z M 197.75981 239.997063 " transform="matrix(0.645998,0,0,0.645998,-5.686086,-13.193933)"/>
<path style="fill:none;stroke-width:2;stroke-linecap:butt;stroke-linejoin:miter;stroke:rgb(0%,79.998779%,0%);stroke-opacity:1;stroke-miterlimit:10;" d="M 199.997142 239.997063 L 239.997008 239.997063 L 239.997008 271.761129 " transform="matrix(0.645998,0,0,0.645998,-5.686086,-13.193933)"/>
<path style="fill-rule:nonzero;fill:rgb(0%,79.998779%,0%);fill-opacity:1;stroke-width:2;stroke-linecap:butt;stroke-linejoin:miter;stroke:rgb(0%,79.998779%,0%);stroke-opacity:1;stroke-miterlimit:10;" d="M 239.997008 277.759597 L 236.000045 269.759624 L 239.997008 271.761129 L 244.000018 269.759624 Z M 239.997008 277.759597 " transform="matrix(0.645998,0,0,0.645998,-5.686086,-13.193933)"/>
<path style="fill:none;stroke-width:2;stroke-linecap:butt;stroke-linejoin:miter;stroke:rgb(0%,79.998779%,0%);stroke-opacity:1;stroke-miterlimit:10;" d="M 239.997008 280.002976 L 239.997008 351.760861 " transform="matrix(0.645998,0,0,0.645998,-5.686086,-13.193933)"/>
<path style=" stroke:none;fill-rule:nonzero;fill:rgb(0%,79.998779%,0%);fill-opacity:1;" d="M 149.351562 217.917969 L 146.769531 212.75 L 149.351562 214.042969 L 151.9375 212.75 Z M 149.351562 217.917969 "/>
<g clip-path="url(#clip9)" clip-rule="nonzero">
<path style="fill:none;stroke-width:2;stroke-linecap:butt;stroke-linejoin:miter;stroke:rgb(0%,79.998779%,0%);stroke-opacity:1;stroke-miterlimit:10;" d="M 239.997008 357.75933 L 236.000045 349.759356 L 239.997008 351.760861 L 244.000018 349.759356 Z M 239.997008 357.75933 " transform="matrix(0.645998,0,0,0.645998,-5.686086,-13.193933)"/>
</g>
<path style="fill-rule:nonzero;fill:rgb(100%,100%,100%);fill-opacity:1;stroke-width:1;stroke-linecap:butt;stroke-linejoin:miter;stroke:rgb(0%,0%,0%);stroke-opacity:1;stroke-miterlimit:10;" d="M 160.000842 270.999617 L 157.902587 268.901363 C 159.069628 267.75851 160.932056 267.75851 162.099096 268.901363 Z M 164.257819 266.797062 C 163.12706 265.660255 161.597208 265.031383 160.000842 265.031383 C 158.398428 265.031383 156.868577 265.660255 155.737817 266.797062 L 153.639563 264.638339 C 157.152779 261.13117 162.848905 261.13117 166.362121 264.638339 Z M 168.520844 262.540084 C 166.271418 260.272518 163.199622 258.990587 160.000842 258.990587 C 156.802062 258.990587 153.730266 260.272518 151.48084 262.540084 L 149.437007 260.351127 C 155.290351 254.558251 164.711332 254.558251 170.55863 260.351127 Z M 172.717353 258.252872 C 165.690921 251.232488 154.310763 251.232488 147.278284 258.252872 L 145.149795 256.148571 C 149.092337 252.212076 154.431699 249.998932 160.000842 249.998932 C 165.569984 249.998932 170.909346 252.212076 174.851888 256.148571 Z M 172.717353 258.252872 " transform="matrix(-0.645998,0,0,-0.645998,201.356358,323.694186)"/>
</g>
</svg>
